<svg width="126" height="28" viewBox="0 0 126 28" fill="none" xmlns="http://www.w3.org/2000/svg">
<path d="M17.327 27.264H13.303L7.22301 16.141H3.56401V27.264H0.0890045V3.043H3.56401V12.666H8.16901C9.34904 12.6953 10.4932 12.2589 11.354 11.4512C12.2148 10.6435 12.7231 9.5295 12.769 8.35C12.7244 7.16399 12.212 6.0439 11.3438 5.23471C10.4756 4.42552 9.32222 3.99308 8.13602 4.03199H0.0880127V0.556995H8.13101C10.2396 0.517594 12.2777 1.31594 13.7986 2.77698C15.3194 4.23803 16.1989 6.24254 16.244 8.351C16.2393 10.3575 15.4412 12.2806 14.024 13.701C13.1538 14.5835 12.0935 15.2556 10.924 15.666L17.327 27.264Z" fill="#1D1D1B"/>
<path d="M48.596 27.265H44.833L41.267 18.721H33.983L35.383 15.246H39.813L36.21 6.587L27.586 27.264H23.82L34.966 0.546997H37.457L48.596 27.265Z" fill="#1D1D1B"/>
<path d="M62.175 27.265H59.68L48.596 0.548006H52.361L60.927 21.2L69.495 0.544006H73.26L62.175 27.265Z" fill="#1D1D1B"/>
<path d="M97.635 27.264H80.722V2.28301H84.1971V11.956H95.5721V15.431H84.1971V23.788H97.635V27.264ZM97.6031 4.01901H80.722V0.544006H97.6031V4.01901Z" fill="#1D1D1B"/>
<path d="M125.911 27.265H123.183L108.89 7.51099V27.265H105.415V0.550995H108.144L122.436 20.302V0.550995H125.911V27.265Z" fill="#1D1D1B"/>
</svg>
